<svg xmlns="http://www.w3.org/2000/svg" height="24" viewBox="0 -960 960 960" width="24"><path d="M876-516q-77-77-178.5-120.5T480-680q-21 0-40.5 1.5T400-674L298-776q44-12 89.5-18t92.5-6q142 0 265 53t215 145l-84 86ZM716-358l-29-29-29-29-144-144q81 8 151.5 41T790-432l-74 74Zm74 302L414-434q-47 11-87.5 33T254-346l-84-86q32-32 69-56t79-42l-90-90q-41 21-76.5 46.5T84-516L0-602q32-32 66.5-57.5T140-708l-84-84 56-56 736 736-58 56Zm-310-64L339-262q27-27 63-42.5t78-15.5q42 0 78 15.5t63 42.5L480-120Z"/></svg>